External Loads File
version=1
nRows=54
nColumns=13
Range=5.000000e-03-10 seconds
endheader
time 	forceRightX 	forceRightY 	forceRightZ 	pointRightX 	pointRightY 	pointRightZ 	forceLeftX 	forceLeftY 	forceLeftZ 	pointLeftX 	pointLeftY 	pointLeftZ 		
5.005000 108.258679 -17.458344 -0.000000 0.231420 0.193604 -0.190617 -36.945456 212.387163 -0.000000 0.429703 0.461924 -0.445072
5.010000 102.286269 -34.452251 -0.000000 0.224316 0.200257 -0.190765 -32.565773 257.959011 -0.000000 0.434131 0.455290 -0.445718
5.015000 95.911985 -48.639439 -0.000000 0.217605 0.206959 -0.190886 -29.388490 305.854155 -0.000000 0.438293 0.448099 -0.446256
5.020000 89.181635 -60.711663 -0.000000 0.211371 0.214090 -0.190826 -27.196773 354.512220 -0.000000 0.442661 0.440424 -0.447144
5.025000 82.210126 -71.088283 -0.000000 0.205608 0.221771 -0.190701 -26.236017 402.118826 -0.000000 0.446728 0.432225 -0.447716
5.030000 75.014245 -80.193968 -0.000000 0.200314 0.229624 -0.190642 -26.352309 446.959091 -0.000000 0.451186 0.423657 -0.447873
5.035000 67.741586 -88.198714 -0.000000 0.195629 0.237831 -0.190409 -28.408879 487.608378 -0.000000 0.455370 0.415024 -0.447715
5.040000 60.290405 -95.376188 -0.000000 0.191451 0.246332 -0.190334 -32.172831 523.292077 -0.000000 0.459329 0.406117 -0.447568
5.045000 52.679372 -101.755972 -0.000000 0.187814 0.255050 -0.190175 -38.208347 553.873472 -0.000000 0.463155 0.397253 -0.447365
5.050000 44.637363 -107.423504 -0.000000 0.184682 0.263992 -0.190109 -45.349594 579.958917 -0.000000 0.466735 0.387706 -0.447180
5.055000 36.324336 -112.205532 -0.000000 0.182268 0.273045 -0.189892 -54.374282 602.456278 -0.000000 0.470132 0.378000 -0.446922
5.060000 27.684324 -116.060195 -0.000000 0.180318 0.282291 -0.189851 -64.340755 622.627451 -0.000000 0.473099 0.367980 -0.446744
5.065000 18.775198 -118.917661 -0.000000 0.179105 0.291747 -0.189966 -74.368339 641.810849 -0.000000 0.475837 0.357573 -0.446833
5.070000 9.880054 -120.683169 -0.000000 0.177637 0.301302 -0.190908 -84.284916 661.180139 -0.000000 0.477906 0.347081 -0.446622
5.075000 1.184587 -121.295390 -0.000000 0.177374 0.311082 -0.190999 -93.048487 681.798893 -0.000000 0.479371 0.336254 -0.446582
5.080000 -6.841960 -120.702812 -0.000000 0.177641 0.320988 -0.191077 -101.194795 704.270314 -0.000000 0.480460 0.325686 -0.447161
5.085000 -13.992541 -118.903690 -0.000000 0.178460 0.330872 -0.191322 -108.156013 729.141363 -0.000000 0.480808 0.315122 -0.447220
5.090000 -20.073258 -115.938147 -0.000000 0.179788 0.340890 -0.191516 -113.733425 756.785653 -0.000000 0.480833 0.304704 -0.447098
5.095000 -25.007569 -111.905126 -0.000000 0.181695 0.350897 -0.191747 -117.447315 787.519712 -0.000000 0.480350 0.294134 -0.446920
5.100000 -28.631507 -107.024729 -0.000000 0.184108 0.360863 -0.192110 -119.994492 821.360696 -0.000000 0.479052 0.283776 -0.446777
5.105000 -31.041728 -101.555474 -0.000000 0.187012 0.370775 -0.192336 -121.044022 858.302790 -0.000000 0.477127 0.273551 -0.446554
5.110000 -32.418847 -95.790034 -0.000000 0.190584 0.380562 -0.192561 -120.541773 898.104643 -0.000000 0.474512 0.263576 -0.446288
5.115000 -33.063914 -90.013696 -0.000000 0.194507 0.390205 -0.192831 -118.397824 940.363870 -0.000000 0.471296 0.253792 -0.446063
5.120000 -33.357543 -84.469591 -0.000000 0.199001 0.399568 -0.192966 -114.260626 984.536835 -0.000000 0.467496 0.244156 -0.445789
5.125000 -33.640860 -79.355710 -0.000000 0.204056 0.408691 -0.193116 -108.033101 1029.838915 -0.000000 0.463127 0.234861 -0.445467
5.130000 -34.263381 -74.776067 -0.000000 0.209691 0.417699 -0.193333 -98.702602 1075.325347 -0.000000 0.458337 0.225801 -0.445161
5.135000 -35.360527 -70.833117 -0.000000 0.215622 0.426323 -0.193554 -87.028339 1119.586048 -0.000000 0.452956 0.217119 -0.444952
5.140000 -37.133828 -67.525117 -0.000000 0.222058 0.434685 -0.193773 -71.819198 1161.157877 -0.000000 0.447076 0.208806 -0.444734
5.145000 -39.670212 -64.841773 -0.000000 0.228989 0.442670 -0.194021 -52.704989 1198.357468 -0.000000 0.440749 0.200714 -0.444622
5.150000 -42.965591 -62.760437 -0.000000 0.236345 0.450544 -0.194391 -30.044987 1229.428834 -0.000000 0.433997 0.193184 -0.444479
5.155000 -46.903852 -61.278638 -0.000000 0.244097 0.457626 -0.194736 -5.347742 1252.695530 -0.000000 0.426811 0.186125 -0.444365
5.160000 -51.347809 -60.393142 -0.000000 0.251869 0.464346 -0.195417 20.333992 1266.765853 -0.000000 0.419333 0.179510 -0.444241
5.165000 -56.455173 -59.841074 -0.000000 0.261653 0.470717 -0.194072 52.654164 1270.370901 -0.000000 0.411574 0.173411 -0.444140
5.170000 -61.424861 -60.262623 -0.000000 0.269388 0.476555 -0.195474 76.689179 1263.434170 -0.000000 0.403533 0.167807 -0.444029
5.175000 -66.644261 -61.181264 -0.000000 0.278277 0.481971 -0.195897 102.252296 1245.604121 -0.000000 0.395276 0.162753 -0.443950
5.180000 -71.866847 -62.626678 -0.000000 0.287314 0.486884 -0.196157 125.657606 1217.518625 -0.000000 0.386705 0.158233 -0.443863
5.185000 -76.964747 -64.411998 -0.000000 0.296591 0.491184 -0.196182 146.118501 1180.069119 -0.000000 0.378055 0.154241 -0.443757
5.190000 -81.780906 -66.253236 -0.000000 0.305847 0.494975 -0.196560 163.236516 1134.312653 -0.000000 0.369201 0.150832 -0.443689
5.195000 -86.213007 -67.669261 -0.000000 0.315361 0.498241 -0.196797 178.586131 1080.996206 -0.000000 0.359940 0.147938 -0.443060
5.200000 -89.847888 -68.524978 -0.000000 0.324859 0.500681 -0.196980 189.169346 1021.450116 -0.000000 0.350950 0.145576 -0.442990
5.205000 -92.560100 -68.367045 -0.000000 0.334456 0.502662 -0.197249 196.607168 956.141104 -0.000000 0.341948 0.143787 -0.443009
5.210000 -94.143077 -66.917853 -0.000000 0.344050 0.503981 -0.197213 200.838833 885.681653 -0.000000 0.332890 0.142530 -0.443042
5.215000 -94.385758 -64.006505 -0.000000 0.353485 0.504655 -0.197212 201.461565 810.785888 -0.000000 0.323875 0.141990 -0.443125
5.220000 -93.254660 -59.323771 -0.000000 0.363250 0.504437 -0.197244 199.626227 731.917186 -0.000000 0.314984 0.142163 -0.443362
5.225000 -90.550384 -52.947200 -0.000000 0.372154 0.503861 -0.196995 193.317938 650.650897 -0.000000 0.306066 0.143042 -0.443510
5.230000 -86.459850 -44.445541 -0.000000 0.380980 0.502560 -0.196814 184.268237 568.001092 -0.000000 0.297355 0.144814 -0.443551
5.235000 -81.101277 -33.465731 -0.000000 0.389578 0.500589 -0.196503 172.763948 485.801126 -0.000000 0.288749 0.147241 -0.443609
5.240000 -74.637456 -19.522640 -0.000000 0.397653 0.498022 -0.196170 159.244614 406.147880 -0.000000 0.280149 0.150495 -0.443798
5.245000 -67.320031 -2.022868 -0.000000 0.405489 0.495382 -0.195684 144.421980 331.076919 -0.000000 0.271554 0.153939 -0.443849
5.250000 -59.456196 19.780539 -0.000000 0.412813 0.491231 -0.195041 129.772953 262.004230 -0.000000 0.263008 0.158992 -0.443753
5.255000 -51.348296 46.299444 -0.000000 0.419514 0.486215 -0.194439 115.390641 200.445620 -0.000000 0.254676 0.164569 -0.443491
5.260000 -43.256195 78.032133 -0.000000 0.425773 0.480526 -0.193759 102.138715 146.855154 -0.000000 0.246547 0.170535 -0.443379
5.265000 -35.247871 115.328001 -0.000000 0.431635 0.473926 -0.193076 90.660147 100.839099 -0.000000 0.238656 0.176987 -0.443154
5.270000 -27.495644 158.086945 -0.000000 0.436922 0.466948 -0.192642 81.079284 61.514066 -0.000000 0.231019 0.183846 -0.442927
